<svg width="16" height="16" viewBox="0 0 16 16" fill="none" xmlns="http://www.w3.org/2000/svg"><path fill-rule="evenodd" clip-rule="evenodd" d="M1.615 1.615a.963.963 0 0 1 .681-.282h11.407c.242 0 .34.029.395.053.057.026.13.074.286.23a.91.91 0 0 1 .282.68v11.369a.963.963 0 0 1-.964 1H2.296a.963.963 0 0 1-.963-.963V2.296c0-.255.102-.5.282-.68Zm14.223 12.929a2.296 2.296 0 0 1-2.136 1.454H2.296A2.296 2.296 0 0 1 0 13.702V2.296A2.296 2.296 0 0 1 1.459.158.664.664 0 0 1 1.889 0h11.814c.337 0 .643.038.934.166.287.127.5.318.69.507.481.481.672 1.057.672 1.623V14.11c0 .166-.06.318-.16.435Z" fill="#2D3440"/></svg>