<svg width="16" height="16" viewBox="0 0 16 16" fill="none" xmlns="http://www.w3.org/2000/svg"><path fill-rule="evenodd" clip-rule="evenodd" d="M16 8A8 8 0 1 1 0 8a8 8 0 0 1 16 0ZM8.287 5.906c-.778.323-2.334.993-4.666 2.01-.378.15-.577.297-.595.441-.03.244.275.34.69.47l.175.056c.408.133.958.288 1.243.294.26.006.549-.101.868-.32 2.179-1.471 3.303-2.214 3.374-2.23.05-.012.12-.026.166.016.047.041.042.12.037.141-.03.129-1.226 1.241-1.846 1.817a18.84 18.84 0 0 0-.546.522c-.38.366-.664.64.016 1.088.326.216.588.394.848.571.285.194.569.387.937.629.093.061.183.124.27.186.331.237.63.449.997.416.214-.02.435-.221.547-.82.265-1.418.786-4.487.907-5.752a1.41 1.41 0 0 0-.014-.315.337.337 0 0 0-.114-.217.522.522 0 0 0-.31-.093c-.301.005-.762.166-2.984 1.09Z" fill="#2D3440"/></svg>